<svg xmlns="http://www.w3.org/2000/svg" version="1.0" viewBox="0 0 1377 789">
  <style>
      path {
        fill: #0A0908;
      }
      @media (prefers-color-scheme: dark) {
        path {
          fill: #F4F4F9;
        }
      }
    </style>
  <path d="M1003 10c-38.7 2.2-99.4 9.7-163.2 20.2L826 32.4V778h149V450c0-261.7.3-328 1.3-328 .6 0 7.3-.7 14.7-1.5 28.4-3.2 37.4-3.8 65.5-3.9 26.9-.1 29.8.1 39.5 2.2 51.3 11.3 90.1 43.8 104.8 87.7 4.4 13.1 5.7 22.2 5.6 40 0 13.7-.5 19-2.3 27.5-5.8 27.1-17.9 49.8-36.6 68.6-19.4 19.5-38.1 28.7-65 31.9-16.7 2-30.7 9.1-45.1 22.8-11 10.5-16 16.8-24 30.2-5.1 8.7-19.8 40.5-19 41.3.9.8 18.8 5.2 30.1 7.2 22.2 4.1 59.7 4.5 86.1 1 76.2-10.3 144.3-47 184.5-99.5 11.5-15 23.7-36.3 30.2-53 19.6-49.8 18.9-114.4-1.8-163-10.6-25-25.3-46.6-45.4-66.6-46.7-46.4-106.8-73.5-185.6-83.5-15.2-1.9-83.9-2.8-109.5-1.4zM290.7 27.2c-2.1 6.1-267.3 744.7-268.6 748L21 778h146.5l27.5-82.3 27.5-82.2 112.7-.5 112.7-.5-4-10.4c-5.5-14.7-18.6-41.3-24.9-50.6-10.5-15.5-27.6-31.2-41.5-38-13.5-6.5-15.3-6.8-64-7.2-30.1-.3-46.9-.1-53.3.7-5.2.6-9.5 1-9.7.8-.2-.2 2.3-4.7 5.5-10 5.7-9.4 7-13 50.4-145.5 35.7-109 45.3-139.5 48.7-154.5 2.4-10.3 4.4-18.6 4.6-18.4.2.2 2.1 8.6 4.3 18.7 3.6 16.3 14.5 50 97.3 298.9l93.3 280.5 76.8.3c66.7.2 76.7 0 76.4-1.2-.2-.8-61-170.7-135.3-377.5L437.5 23H292.2l-1.5 4.2z"/>
</svg>
