<?xml version="1.0" standalone="no"?>
<!DOCTYPE svg PUBLIC "-//W3C//DTD SVG 20010904//EN"
 "http://www.w3.org/TR/2001/REC-SVG-20010904/DTD/svg10.dtd">
<svg version="1.0" xmlns="http://www.w3.org/2000/svg"
 width="1377.000000pt" height="1377.000000pt" viewBox="0 0 1377.000000 1377.000000"
 preserveAspectRatio="xMidYMid meet">
<g transform="translate(0.000000,1377.000000) scale(0.100000,-0.100000)"
fill="#000000" stroke="none">
<path d="M10056 10733 c-2 -2 -45 -5 -97 -8 -52 -3 -112 -7 -134 -10 -22 -2
-71 -7 -110 -10 -38 -4 -86 -8 -105 -10 -19 -2 -62 -6 -95 -10 -33 -3 -76 -8
-96 -11 -20 -2 -56 -7 -80 -10 -94 -11 -115 -13 -149 -18 -19 -3 -57 -8 -85
-12 -27 -3 -52 -7 -55 -9 -3 -1 -36 -6 -73 -10 -37 -3 -78 -8 -90 -11 -12 -2
-39 -6 -62 -9 -22 -4 -51 -8 -65 -10 -14 -2 -43 -7 -65 -9 -22 -3 -49 -7 -60
-10 -31 -6 -118 -19 -135 -21 -8 -1 -35 -5 -60 -9 -25 -4 -57 -9 -72 -12 -64
-10 -92 -15 -100 -20 -4 -3 -8 -1682 -8 -3731 0 -3110 2 -3724 13 -3720 8 3
20 1 27 -3 7 -5 23 -5 34 0 12 4 31 4 43 -1 13 -5 25 -4 28 2 4 5 11 6 17 3
13 -8 134 -8 147 1 6 3 11 3 11 -2 0 -8 134 -7 157 1 7 3 13 1 13 -4 0 -5 12
-5 28 -1 15 5 37 5 49 0 13 -5 25 -4 28 2 4 5 11 7 16 3 9 -5 151 -9 174 -4 6
1 12 2 15 1 15 -6 100 -5 100 0 0 4 15 4 33 0 17 -3 52 -4 77 -1 25 3 55 2 67
-2 12 -4 25 -3 28 2 3 5 18 5 33 1 15 -4 39 -4 54 0 16 4 30 3 33 -1 3 -5 16
-5 30 0 13 5 26 6 29 2 3 -5 30 -5 61 -2 31 3 58 3 61 -2 3 -4 13 -4 22 1 11
6 24 6 35 0 12 -7 19 -6 22 3 2 7 6 1460 9 3228 2 1768 5 3220 6 3225 1 6 0
27 -2 47 -6 51 1 59 58 63 27 3 65 7 84 9 33 5 134 16 210 22 157 13 279 17
495 17 278 0 337 -8 524 -69 170 -56 380 -168 464 -248 15 -14 32 -26 36 -26
22 0 241 -252 241 -277 0 -7 4 -13 8 -13 7 0 95 -162 98 -179 0 -3 6 -19 13
-36 26 -62 46 -133 62 -230 20 -114 12 -434 -11 -495 -1 -3 -2 -8 -1 -12 0 -4
-4 -19 -9 -33 -5 -14 -12 -36 -14 -48 -10 -47 -15 -63 -26 -92 -63 -163 -159
-331 -232 -407 -10 -10 -18 -20 -18 -23 0 -7 -109 -113 -169 -165 -60 -51
-230 -152 -243 -144 -4 3 -8 0 -8 -5 0 -6 -7 -11 -15 -11 -8 0 -23 -4 -33 -10
-20 -11 -144 -41 -187 -46 -110 -12 -271 -56 -297 -82 -7 -7 -16 -12 -21 -12
-37 0 -247 -187 -333 -295 -53 -67 -168 -263 -179 -305 -1 -3 -14 -32 -29 -65
-95 -206 -91 -191 -55 -204 16 -5 29 -8 29 -6 0 2 19 -2 42 -11 22 -8 43 -12
45 -10 3 3 23 -2 45 -10 22 -7 44 -12 48 -9 5 3 11 1 15 -5 4 -6 10 -8 14 -6
4 3 23 1 42 -4 149 -39 683 -42 888 -5 13 2 45 7 70 11 25 4 50 9 55 12 5 3
23 6 40 8 17 1 42 5 56 8 14 3 34 8 45 10 52 12 188 50 260 73 157 51 481 191
496 215 3 5 9 9 13 8 10 -3 195 108 224 133 12 11 22 16 22 11 0 -5 4 -4 8 1
4 6 48 42 97 80 50 38 97 74 105 81 34 30 237 234 258 261 104 130 200 269
225 326 6 15 15 27 19 27 4 0 8 9 8 19 0 11 4 23 10 26 12 7 92 174 93 193 0
6 4 12 9 12 4 0 8 6 8 14 0 8 5 27 11 43 6 15 10 29 10 30 -1 2 5 20 13 40 13
38 28 90 42 148 4 17 8 35 10 40 2 10 10 50 20 108 36 209 35 590 -3 767 -4
19 -8 40 -8 45 -1 6 -8 37 -15 70 -8 33 -14 62 -15 65 -4 17 -37 128 -42 140
-3 8 -7 21 -9 28 -1 7 -12 33 -23 58 -12 24 -21 46 -21 50 0 12 -122 247 -135
260 -7 8 -17 23 -20 34 -3 11 -11 20 -16 20 -5 0 -9 7 -9 15 0 8 -4 15 -10 15
-5 0 -10 5 -10 10 0 11 -48 76 -118 160 -40 48 -193 203 -257 260 -22 20 -78
65 -125 100 -47 36 -86 68 -88 73 -2 4 -8 7 -14 7 -5 0 -22 9 -36 21 -83 64
-352 210 -477 259 -33 13 -64 28 -69 32 -6 4 -17 8 -26 8 -9 0 -34 9 -56 19
-21 11 -42 17 -46 14 -5 -2 -8 1 -8 8 0 7 -3 10 -6 6 -3 -3 -31 4 -62 14 -57
20 -254 74 -302 83 -14 2 -47 10 -75 16 -27 6 -66 14 -85 16 -19 3 -42 6 -50
9 -8 2 -37 7 -65 11 -27 3 -59 8 -70 10 -93 19 -272 26 -733 28 -221 1 -404 1
-406 -1z"/>
<path d="M2885 10498 c-74 -207 -84 -234 -97 -273 -7 -22 -15 -42 -18 -45 -3
-3 -6 -12 -8 -20 -3 -17 -59 -174 -72 -205 -5 -11 -24 -65 -43 -120 -20 -55
-52 -145 -72 -200 -20 -55 -47 -134 -62 -175 -14 -41 -30 -86 -36 -100 -6 -14
-11 -28 -12 -32 -2 -5 -4 -10 -5 -13 -1 -3 -3 -8 -5 -12 -1 -5 -4 -15 -7 -23
-4 -8 -25 -69 -48 -135 -23 -66 -46 -129 -51 -140 -5 -11 -29 -77 -53 -148
-25 -70 -48 -132 -51 -137 -3 -5 -8 -18 -10 -27 -4 -21 -81 -238 -94 -268 -5
-11 -24 -63 -41 -115 -17 -52 -36 -104 -40 -115 -5 -11 -30 -78 -55 -150 -79
-223 -107 -299 -116 -320 -4 -11 -24 -65 -43 -120 -19 -55 -43 -125 -54 -155
-11 -30 -43 -120 -72 -200 -28 -80 -55 -154 -60 -165 -9 -23 -71 -195 -74
-210 -2 -5 -6 -17 -9 -25 -10 -23 -78 -214 -80 -225 -2 -5 -5 -15 -9 -20 -3
-6 -16 -39 -27 -75 -12 -36 -25 -72 -28 -80 -3 -8 -7 -19 -9 -25 -1 -5 -30
-84 -64 -175 -34 -91 -64 -174 -67 -185 -5 -20 -49 -143 -63 -180 -9 -21 -16
-41 -130 -360 -39 -110 -82 -229 -95 -265 -61 -168 -118 -328 -170 -475 -31
-88 -61 -169 -65 -180 -10 -24 -34 -91 -130 -360 -39 -110 -80 -224 -90 -252
-11 -29 -29 -77 -39 -105 -10 -29 -35 -98 -55 -153 -21 -55 -39 -107 -41 -115
-2 -8 -18 -52 -34 -98 -17 -46 -37 -102 -45 -125 -8 -23 -27 -73 -41 -112 -14
-38 -27 -74 -29 -80 -4 -19 -38 -110 -47 -128 -10 -19 11 -35 30 -23 5 4 12 3
15 -2 2 -4 32 -5 65 -2 34 3 61 2 61 -2 0 -4 11 -3 24 2 13 5 27 6 30 3 7 -7
76 -10 76 -3 0 6 59 5 65 -2 3 -3 25 -2 49 2 24 3 53 3 64 -1 12 -5 24 -4 27
2 4 5 11 6 17 3 13 -8 134 -8 147 1 6 3 11 3 11 -2 0 -8 134 -7 157 1 7 3 13
1 13 -4 0 -5 12 -5 28 -1 15 5 37 5 49 0 13 -5 25 -4 28 2 4 5 11 7 16 3 9 -5
151 -9 174 -4 6 1 12 2 15 1 15 -6 100 -5 100 0 0 4 15 4 33 0 17 -4 46 -4 62
-1 17 3 42 3 58 -1 22 -6 30 -4 41 14 8 12 73 202 146 422 72 220 136 409 140
420 8 18 77 224 84 250 2 6 6 17 9 25 7 18 78 230 81 245 2 6 6 17 9 25 3 8
17 51 32 95 14 44 29 87 32 95 3 8 7 21 9 28 1 8 5 17 9 20 7 7 152 8 1535 13
388 2 708 4 712 6 5 2 1 17 -7 33 -8 16 -17 37 -18 47 -2 10 -14 40 -25 66
-12 27 -22 51 -22 53 0 14 -186 380 -200 394 -3 3 -19 25 -35 49 -40 59 -185
206 -260 263 -74 57 -203 123 -255 132 -14 3 -25 5 -25 6 0 14 -946 20 -1053
7 -63 -8 -64 -8 -56 15 3 13 10 25 14 28 18 13 149 317 155 360 1 9 66 205 75
225 18 43 80 237 80 250 0 8 4 15 8 15 5 0 9 6 9 13 0 12 187 596 203 632 16
37 64 190 68 215 2 13 7 29 11 35 7 8 57 160 67 200 1 6 18 56 38 113 19 56
32 102 29 102 -3 0 -1 6 5 13 6 7 13 25 16 40 2 15 8 32 13 39 4 7 8 18 9 25
2 13 22 79 31 103 3 8 7 20 9 25 1 6 28 89 59 185 31 96 58 186 61 199 3 14 7
29 10 33 6 9 60 201 69 243 20 90 39 164 42 161 4 -3 18 -61 37 -147 21 -93
33 -137 65 -241 12 -38 30 -96 40 -130 10 -35 33 -103 50 -153 17 -49 31 -91
30 -93 -1 -3 48 -155 58 -182 3 -8 7 -19 9 -25 1 -5 21 -66 44 -135 23 -69 43
-129 45 -135 1 -5 5 -17 8 -25 7 -16 59 -178 63 -195 5 -17 66 -199 74 -220
10 -23 99 -293 104 -315 4 -16 44 -134 53 -160 3 -8 7 -19 9 -25 1 -5 17 -50
34 -100 17 -49 32 -97 34 -105 1 -8 5 -22 9 -30 4 -8 67 -199 142 -425 74
-225 138 -417 141 -425 3 -8 5 -17 6 -20 0 -3 6 -19 13 -37 7 -17 11 -34 7
-37 -3 -3 1 -6 8 -6 7 0 11 -2 8 -5 -3 -3 8 -45 24 -93 16 -48 31 -94 34 -102
2 -8 20 -62 40 -120 20 -58 40 -118 44 -135 5 -16 18 -57 30 -90 12 -33 30
-87 40 -120 11 -33 31 -94 45 -135 15 -41 27 -80 29 -87 1 -7 5 -16 9 -19 4
-4 7 -16 7 -26 0 -10 4 -26 9 -36 8 -14 26 -67 55 -157 2 -5 6 -17 9 -25 3 -8
65 -195 137 -415 72 -220 137 -413 143 -430 7 -16 12 -32 13 -35 0 -3 3 -12 7
-20 3 -8 11 -33 17 -55 6 -22 14 -47 17 -55 3 -8 7 -19 9 -25 4 -18 131 -389
138 -405 5 -13 41 -15 244 -15 130 1 245 -3 255 -7 9 -5 17 -5 17 -1 0 4 42 7
92 6 112 -3 100 -3 171 0 31 1 57 -1 57 -5 0 -4 10 -4 23 0 12 4 40 7 62 5 54
-4 54 -4 105 0 25 2 51 -1 58 -6 7 -6 12 -6 12 0 0 10 60 8 88 -2 6 -2 12 -1
12 3 0 5 17 7 38 4 20 -2 42 -3 47 -3 6 0 55 2 110 5 55 2 110 4 122 5 23 1
23 8 3 56 -5 11 -23 61 -40 110 -17 50 -54 153 -82 230 -27 77 -65 183 -83
235 -18 52 -39 109 -46 125 -7 17 -14 35 -14 40 -1 6 -5 17 -9 25 -6 15 -75
206 -80 225 -2 6 -6 17 -9 25 -26 64 -55 150 -50 150 3 0 1 6 -5 12 -5 7 -21
47 -35 88 -14 41 -37 107 -52 145 -14 39 -35 97 -46 130 -11 33 -23 67 -26 75
-3 8 -7 20 -9 25 -3 9 -30 85 -84 230 -10 28 -33 91 -50 140 -17 50 -40 113
-50 140 -10 28 -33 91 -50 140 -17 50 -35 99 -40 110 -4 11 -13 34 -18 50 -6
17 -14 39 -18 50 -4 11 -8 23 -8 27 -1 3 -4 10 -8 14 -5 4 -8 14 -8 23 0 9 -7
29 -15 45 -8 15 -15 35 -15 42 0 8 -4 22 -10 32 -5 9 -28 71 -51 137 -23 66
-47 134 -54 150 -8 17 -17 44 -21 60 -4 17 -11 36 -17 43 -5 6 -6 12 -2 12 4
0 3 6 -2 13 -6 6 -18 37 -28 67 -10 30 -22 60 -26 66 -5 6 -6 14 -2 17 3 4 1
12 -4 19 -5 7 -17 33 -25 58 -53 150 -120 337 -125 350 -3 8 -7 20 -9 25 -2 6
-17 48 -34 95 -17 47 -40 110 -50 140 -10 30 -24 69 -30 85 -26 62 -29 71 -41
110 -7 22 -14 42 -14 45 -1 3 -5 12 -8 20 -4 8 -37 98 -73 200 -36 102 -84
235 -106 295 -22 61 -44 121 -48 135 -5 14 -25 70 -45 125 -20 55 -38 105 -39
110 -2 6 -7 21 -13 35 -6 14 -20 54 -32 90 -12 36 -26 74 -30 85 -5 11 -26 67
-46 125 -20 58 -41 114 -45 125 -10 23 -55 150 -76 215 -8 25 -19 54 -24 65
-9 20 -70 191 -74 210 -2 6 -8 24 -15 40 -7 17 -19 49 -27 72 -8 23 -28 79
-45 125 -16 46 -41 117 -55 158 -15 41 -30 83 -36 93 -5 10 -11 26 -13 35 -2
9 -18 55 -35 102 -18 47 -33 90 -34 95 -4 13 -15 44 -26 70 -8 18 -66 184 -74
210 -4 15 -17 47 -26 70 -5 11 -16 40 -24 65 -8 25 -34 97 -56 160 -23 63 -47
130 -53 148 l-10 32 -728 0 -727 0 -37 -102z"/>
</g>
</svg>
